<?xml version="1.0" encoding="UTF-8"?>
<!DOCTYPE svg PUBLIC "-//W3C//DTD SVG 1.1//EN" "http://www.w3.org/Graphics/SVG/1.1/DTD/svg11.dtd">
<!-- Creator: CorelDRAW 2020 (64-Bit) -->
<svg xmlns="http://www.w3.org/2000/svg" xml:space="preserve" width="3385px" height="2404px" version="1.1" style="shape-rendering:geometricPrecision; text-rendering:geometricPrecision; image-rendering:optimizeQuality; fill-rule:evenodd; clip-rule:evenodd"
viewBox="0 0 3385 2403.22"
 xmlns:xlink="http://www.w3.org/1999/xlink"
 xmlns:xodm="http://www.corel.com/coreldraw/odm/2003">
 <defs>
  <style type="text/css">
   <![CDATA[
    .fil0 {fill:white}
    .fil1 {fill:#00CCFF;fill-rule:nonzero}
    .fil2 {fill:white;fill-rule:nonzero}
   ]]>
  </style>
 </defs>
 <g id="Layer_x0020_1">
  <metadata id="CorelCorpID_0Corel-Layer"/>
  <g id="_2424321245760">
   <path class="fil0" d="M1798.85 238.38l-100.42 177.17 -101.32 -123.55 -275.15 158.85 -11.42 6.59 -203.24 -184.83 -311.99 224.2 104.2 197.95 0 204.33 153.33 0 0 303.14c0,23.02 5.4,28.43 28.42,28.43 9.92,0 16.57,-1.02 20.93,-4.02l0 -414.87 447.28 -258.24 179.59 219.01 145.37 -256.49 495.24 285.93 0 -10.18 219.64 203.99 0 -301.03 104.2 -197.95 -311.99 -224.2 -203.24 184.83 -11.42 -6.59 -368.01 -212.47zm-899.34 1133.88l0 298.11 167.41 96.65 148.37 -148.37 -113.1 -65.3 0 -114.82c-6.83,0.36 -13.8,0.54 -20.93,0.54 -80.58,0 -141.77,-22.89 -181.75,-66.81zm1487.13 66.81l0 114.28 -112.38 64.88 148.37 148.37 166.68 -96.23 0 -390.7 -11.23 -10.43 0 169.83 -191.44 0zm-1247.72 369.52l183.04 105.68 422.45 243.9 422.45 -243.9 182.3 -105.25 -148.37 -148.37 -456.38 263.49 -457.12 -263.92 -148.37 148.37z"/>
   <path class="fil1" d="M3103.87 936.98l232.1 0 -76.62 132.62 -155.48 0c-66.32,0 -99.47,33.17 -99.47,99.48 0,66.31 33.15,99.47 99.47,99.47l66.31 0 0 -165.78 132.63 0 0 298.41 -198.94 0c-154.7,0 -232.11,-77.4 -232.11,-232.1 0,-154.7 77.41,-232.1 232.11,-232.1z"/>
   <polygon class="fil1" points="2540.19,1182.32 2540.19,1401.18 2407.56,1401.18 2407.56,878.7 2705.97,1155.84 2705.97,936.98 2838.61,936.98 2838.61,1459.57 "/>
   <polygon class="fil1" points="2374.4,1401.18 2241.77,1401.18 2241.77,936.98 2374.4,936.98 "/>
   <polygon class="fil1" points="1910.2,1182.32 1910.2,1401.18 1777.57,1401.18 1777.57,878.7 2075.98,1155.84 2075.98,936.98 2208.62,936.98 2208.62,1459.57 "/>
   <polygon class="fil2" points="1446,1182.32 1446,1401.18 1313.36,1401.18 1313.36,878.7 1611.78,1155.84 1611.78,936.98 1744.41,936.98 1744.41,1459.57 "/>
   <path class="fil2" d="M882.32 1202.24l0 -265.26 132.63 0 0 265.26c0,44.24 22.07,66.31 66.31,66.31 44.14,0 66.31,-22.07 66.31,-66.31l0 -265.26 132.64 0 0 265.26c0,132.63 -66.32,198.94 -198.95,198.94 -132.63,0 -198.94,-66.31 -198.94,-198.94z"/>
   <polygon class="fil2" points="699.89,1069.6 699.89,1368.02 567.27,1434.34 567.27,1069.6 461.57,1069.6 384.96,936.98 882.32,936.98 805.7,1069.6 "/>
   <path class="fil2" d="M113.47 1401.18l-76.61 -132.63 314.93 0c11.09,0 16.64,-5.55 16.64,-16.52 0,-11.09 -5.55,-16.64 -16.64,-16.64l-132.62 0c-99.48,0 -149.16,-49.68 -149.16,-149.15 0,-99.47 49.68,-149.26 149.16,-149.26l315.05 0 -76.62 132.62 -238.43 0c-10.98,0 -16.52,5.55 -16.52,16.64 0,10.97 5.54,16.53 16.52,16.53l132.62 0c99.48,0 149.27,49.79 149.27,149.26 0,99.47 -49.79,149.15 -149.27,149.15l-238.32 0z"/>
  </g>
 </g>
</svg>
